HIERARCHY
ROOT Hips
{
	OFFSET 0.00000 0.00000 0.00000
	CHANNELS 6 Xposition Yposition Zposition Zrotation Yrotation Xrotation 
	JOINT LHipJoint
	{
		OFFSET 0 0 0
		CHANNELS 3 Zrotation Yrotation Xrotation
		JOINT LeftHip
		{
			OFFSET 1.58895 -1.83665 0.71753
			CHANNELS 3 Zrotation Yrotation Xrotation
			JOINT LeftKnee
			{
				OFFSET 2.50528 -6.88321 0.00000
				CHANNELS 3 Zrotation Yrotation Xrotation
				JOINT LeftAnkle
				{
					OFFSET 2.63244 -7.23257 0.00000
					CHANNELS 3 Zrotation Yrotation Xrotation
					JOINT LeftToe
					{
						OFFSET 0.23691 -0.65090 1.72750
						CHANNELS 3 Zrotation Yrotation Xrotation
						End Site
						{
							OFFSET 0.00000 -0.00000 0.92561
						}
					}
				}
			}
		}
	}
	JOINT RHipJoint
	{
		OFFSET 0 0 0
		CHANNELS 3 Zrotation Yrotation Xrotation
		JOINT RightHip
		{
			OFFSET -1.51435 -1.83665 0.71753
			CHANNELS 3 Zrotation Yrotation Xrotation
			JOINT RightKnee
			{
				OFFSET -2.54551 -6.99375 0.00000
				CHANNELS 3 Zrotation Yrotation Xrotation
				JOINT RightAnkle
				{
					OFFSET -2.66027 -7.30903 0.00000
					CHANNELS 3 Zrotation Yrotation Xrotation
					JOINT RightToe
					{
						OFFSET -0.22981 -0.63138 2.03959
						CHANNELS 3 Zrotation Yrotation Xrotation
						End Site
						{
							OFFSET -0.00000 -0.00000 1.07060
						}
					}
				}
			}
		}
	}
	JOINT lowerback
	{
		OFFSET 0 0 0
		CHANNELS 3 Zrotation Yrotation Xrotation
		JOINT Chest
		{
			OFFSET -0.02651 1.86275 -0.11152
			CHANNELS 3 Zrotation Yrotation Xrotation
			JOINT Chest2
			{
				OFFSET 0.01019 1.86224 0.04087
				CHANNELS 3 Zrotation Yrotation Xrotation
				JOINT lowerneck
				{
					OFFSET 0 0 0
					CHANNELS 3 Zrotation Yrotation Xrotation
					JOINT Neck
					{
						OFFSET -0.01926 1.80512 0.08867
						CHANNELS 3 Zrotation Yrotation Xrotation
						JOINT Head
						{
							OFFSET 0.05516 1.76451 -0.38475
							CHANNELS 3 Zrotation Yrotation Xrotation
							End Site
							{
								OFFSET 0.01592 1.82587 -0.14001
							}
						}
					}
				}
				JOINT LeftCollar
				{
					OFFSET 0 0 0
					CHANNELS 3 Zrotation Yrotation Xrotation
					JOINT LeftShoulder
					{
						OFFSET 3.47116 1.51376 0.14491
CHANNELS 3 Zrotation Xrotation Yrotation
						JOINT LeftElbow
						{
OFFSET 0 -4.780950 0.000000
CHANNELS 3 Zrotation Xrotation Yrotation
							JOINT LeftWrist
							{
OFFSET 0 -3.586150 -0.000000
CHANNELS 3 Zrotation Xrotation Yrotation
								JOINT lhand
								{
									OFFSET 0 0 0
CHANNELS 3 Zrotation Xrotation Yrotation
									JOINT LFingers
									{
OFFSET 0 -0.659810 0.000000
CHANNELS 3 Zrotation Xrotation Yrotation
										End Site
										{
OFFSET 0 -0.531960 0.000000
										}
									}
								}
								JOINT LThumb
								{
OFFSET 0 0.000000 0.000000
CHANNELS 3 Zrotation Xrotation Yrotation
									End Site
									{
OFFSET 0 -0.540080 0.540080
									}
								}
							}
						}
					}
				}
				JOINT RightCollar
				{
					OFFSET 0 0 0
					CHANNELS 3 Zrotation Yrotation Xrotation
					JOINT RightShoulder
					{
						OFFSET -3.31725 1.61216 0.35156
CHANNELS 3 Zrotation Xrotation Yrotation
						JOINT RightElbow
						{
OFFSET 0 -4.489130 0.000000
CHANNELS 3 Zrotation Xrotation Yrotation
							JOINT RightWrist
							{
OFFSET 0 -3.705100 0.000000
CHANNELS 3 Zrotation Xrotation Yrotation
								JOINT rhand
								{
									OFFSET 0 0 0
CHANNELS 3 Zrotation Xrotation Yrotation
									JOINT RFingers
									{
OFFSET 0 -0.449140 0.000000
CHANNELS 3 Zrotation Xrotation Yrotation
										End Site
										{
OFFSET 0 -0.362110 0.000000
										}
									}
								}
								JOINT RThumb
								{
OFFSET 0 0.000000 0.000000
CHANNELS 3 Zrotation Xrotation Yrotation
									End Site
									{
OFFSET 0 -0.367630 0.367630
									}
								}
							}
						}
					}
				}
			}
		}
	}
}
MOTION
Frames: 4
Frame Time: 0.008333333333333333
-1.514861 18.046329 5.978289 -6.437067 19.402808 -1.835206 0.000000 0.000000 0.000000 -8.042172 -8.614307 21.658932 2.111283 -9.094091 -26.090174 -0.177549 11.282248 4.923380 0.904153 -6.059602 -16.957494 0.000000 0.000000 0.000000 24.480401 -17.860094 7.079974 0.000000 0.000000 0.000000 -1.459124 -6.119971 -25.751404 -0.013170 -0.738081 2.028449 7.686446 5.242723 9.754068 0.848390 7.861243 0.487315 -4.352148 3.760833 -4.023949 -8.416976 -11.372948 -4.766467 8.767749 -14.889167 -0.586935 3.691094 -7.325941 2.072132 0.000000 0.000000 0.000000 12.792100 16.063594 -41.965195 67.589506 -58.014538 40.721322 4.592816 -14.954363 21.952462 0.000000 0.000000 0.000000 -7.125000 0.000000 0.000000 -15.197079 8.569364 -13.250466 0.000000 0.000000 0.000000 -32.912646 -23.530539 50.612076 -107.364182 -58.829481 -74.978738 -2.832739 -3.852288 19.156643 0.000000 0.000000 0.000000 7.125000 0.000000 0.000000 24.208535 47.586729 -1.636670
-1.520955 18.048618 5.985249 -6.399655 19.376907 -1.748166 0.000000 0.000000 0.000000 -8.030154 -8.494854 21.584948 2.120115 -9.111956 -26.146175 -0.173101 11.265687 4.991830 0.867656 -5.938952 -16.607465 0.000000 0.000000 0.000000 24.485458 -17.875284 7.010604 0.000000 0.000000 0.000000 -1.428825 -6.216302 -25.584128 -0.006039 -0.502155 1.379873 7.550742 5.114226 9.753049 0.849506 7.677736 0.455243 -4.262835 3.668125 -4.097695 -8.871966 -11.864218 -4.295720 9.191689 -15.562582 -0.760499 3.777632 -7.665607 2.017024 0.000000 0.000000 0.000000 12.633706 16.221967 -41.704016 67.927290 -58.076541 41.007897 4.629453 -15.037161 21.840577 0.000000 0.000000 0.000000 -7.125000 0.000000 0.000000 -15.176723 8.674802 -13.198309 0.000000 0.000000 0.000000 -33.125891 -23.085567 50.053932 -107.410284 -58.823088 -75.018119 -2.996312 -3.689808 19.059859 0.000000 0.000000 0.000000 7.125000 0.000000 0.000000 24.017860 47.520765 -1.581023
-1.531782 18.049519 5.987294 -6.639196 19.220041 -1.736971 0.000000 0.000000 0.000000 -7.671134 -8.275893 21.477232 2.137110 -9.146020 -26.253295 -0.166356 11.265580 5.121652 0.833934 -5.825605 -16.279156 0.000000 0.000000 0.000000 24.812868 -17.773541 6.928846 0.000000 0.000000 0.000000 -1.416287 -6.186017 -25.471635 -0.006772 -0.531513 1.460481 7.729972 4.981083 9.862514 0.867892 7.534126 0.412156 -4.342075 3.587338 -4.201687 -9.630336 -12.425344 -3.837477 10.087473 -16.328560 -0.916395 3.838900 -8.040178 1.956119 0.000000 0.000000 0.000000 12.469223 16.378628 -41.328865 68.196645 -58.125261 41.236644 4.385134 -15.027683 21.699619 0.000000 0.000000 0.000000 -7.125000 0.000000 0.000000 -15.330687 8.828454 -13.294092 0.000000 0.000000 0.000000 -33.268167 -22.807245 49.554988 -107.428289 -58.820628 -75.033595 -3.299882 -3.750880 19.151008 0.000000 0.000000 0.000000 7.125000 0.000000 0.000000 23.788745 47.644972 -1.640855
-1.532477 18.047088 5.999756 -6.808439 18.825727 -1.830594 0.000000 0.000000 0.000000 -7.460638 -8.015640 21.662521 2.154644 -9.180959 -26.363030 -0.176530 11.375886 5.040943 0.832020 -5.819018 -16.260226 0.000000 0.000000 0.000000 24.967975 -17.508293 7.109876 0.000000 0.000000 0.000000 -1.419528 -6.093593 -25.439376 -0.008746 -0.602301 1.655050 7.827758 4.886300 9.881341 0.920124 7.420342 0.467454 -4.328230 3.532837 -4.162851 -10.332410 -12.996362 -3.244584 10.784979 -17.117993 -1.301850 4.120401 -8.443826 1.945456 0.000000 0.000000 0.000000 12.236711 16.556125 -40.894774 68.332044 -58.149457 41.351551 4.400491 -15.121814 21.889479 0.000000 0.000000 0.000000 -7.125000 0.000000 0.000000 -15.317031 8.644149 -13.339620 0.000000 0.000000 0.000000 -33.371694 -22.749879 49.186776 -107.407009 -58.823557 -75.015319 -3.588340 -3.873939 19.194497 0.000000 0.000000 0.000000 7.125000 0.000000 0.000000 23.550566 47.723947 -1.670831
